<?xml version="1.0" encoding="UTF-8" standalone="no"?>
<svg xmlns="http://www.w3.org/2000/svg" viewBox="0 0 38 38" version="1.1" width="38" height="38">
    <g>
        <path
                style="fill:#000000;stroke-width:0.0296144;stroke:none"
                d="M 10.099609 15.380859 C 9.8248791 15.380859 9.6035156 15.651971 9.6035156 15.986328 C 9.6035156 16.320676 9.8248791 16.591797 10.099609 16.591797 L 18.716797 16.591797 C 18.991535 16.591797 19.214844 16.320676 19.214844 15.986328 C 19.214844 15.651971 18.991535 15.380859 18.716797 15.380859 L 10.099609 15.380859 z "
        />
        <path
                style="fill:#000000;stroke-width:0.0296144;stroke:none"
                d="M 10.099609 13.152344 C 9.8248791 13.152344 9.6035156 13.423464 9.6035156 13.757812 C 9.6035156 14.09176 9.8248791 14.363281 10.099609 14.363281 L 18.716797 14.363281 C 18.991535 14.363281 19.214844 14.092169 19.214844 13.757812 C 19.214844 13.423464 18.991535 13.152344 18.716797 13.152344 L 10.099609 13.152344 z "
        />
        <path
                style="fill:#000000;stroke-width:0.0296144;stroke:none"
                d="M 10.099609 10.837891 C 9.8248791 10.837891 9.6035156 11.109003 9.6035156 11.443359 C 9.6035156 11.777708 9.8248791 12.046875 10.099609 12.046875 L 18.716797 12.046875 C 18.991535 12.046875 19.214844 11.777708 19.214844 11.443359 C 19.214844 11.109003 18.991535 10.837891 18.716797 10.837891 L 10.099609 10.837891 z "
        />
        <path
                style="fill:#000000;stroke-width:0.0296144;stroke:none"
                d="M 10.099609 8.609375 C 9.8248791 8.609375 9.6035156 8.8785418 9.6035156 9.2128906 C 9.6035156 9.5472473 9.8248791 9.8183594 10.099609 9.8183594 L 18.716797 9.8183594 C 18.991535 9.8183594 19.214844 9.5472473 19.214844 9.2128906 C 19.214844 8.8785418 18.991535 8.609375 18.716797 8.609375 L 10.099609 8.609375 z "
        />
        <path
                style="fill:#000000;stroke-width:0.0296144;stroke:none"
                d="m 6.6210938,3.7011719 c -0.27473,0 -0.4980469,0.271112 -0.4980469,0.6054687 v 1.9667969 c 0,0.3343489 0.2233169,0.6054687 0.4980469,0.6054687 H 7.6152344 V 18.322266 H 6.6210938 c -0.27473,0 -0.4980469,0.27112 -0.4980469,0.605468 0,0.334349 0.2233169,0.603516 0.4980469,0.603516 H 22.197266 c 0.274738,0 0.496093,-0.269167 0.496093,-0.603516 0,-0.334348 -0.221355,-0.605468 -0.496093,-0.605468 h -0.994141 v -1.357422 l -0.994141,-0.002 v 1.359375 H 8.609375 V 6.8789062 h 11.599609 v 8.6992188 l 0.994141,0.002 V 6.8789062 h 0.994141 c 0.274738,0 0.496093,-0.2711198 0.496093,-0.6054687 V 4.3066406 c 0,-0.3343567 -0.221355,-0.6054687 -0.496093,-0.6054687 z"
        />
        <path

                d="m 28.597737,12.01536 c -2.802533,0 -5.082579,2.306757 -5.082579,5.142125 0,1.161768 0.376149,2.25884 1.087844,3.172288 0.13637,0.175124 0.283251,0.34755 0.425227,0.514316 0.423993,0.497741 0.824378,0.96793 0.966889,1.496754 0.0031,0.0114 0.02987,0.122434 0.02594,0.500438 l -6.84e-4,0.05465 c -0.0039,0.306875 -0.01006,0.727009 0.29704,1.042101 0.210291,0.215791 0.50502,0.320754 0.901239,0.320754 h 2.748746 c 0.427822,0 0.735373,-0.10593 0.94027,-0.323797 0.277183,-0.294648 0.258622,-0.675279 0.246264,-0.927192 -0.0024,-0.0445 -0.0047,-0.08949 -0.0047,-0.134237 -0.0047,-0.37842 0.02358,-0.485105 0.02468,-0.489595 0.144767,-0.528752 0.613813,-1.086362 1.027704,-1.578237 0.138084,-0.16414 0.26852,-0.319166 0.390009,-0.475025 0.711961,-0.91359 1.088252,-2.010858 1.088252,-3.173114 7e-5,-2.835368 -2.279637,-5.142195 -5.081824,-5.142195 z m 3.189672,7.673865 c -0.109689,0.140597 -0.234047,0.288507 -0.365709,0.445051 -0.48256,0.573634 -1.029551,1.223783 -1.234661,1.973021 -0.02924,0.106763 -0.06745,0.303495 -0.06179,0.778449 6.84e-4,0.05764 0.0031,0.115664 0.0063,0.173119 0.0024,0.04537 0.0055,0.105175 0.0047,0.152541 -0.036,0.0063 -0.09044,0.01148 -0.168933,0.01148 h -2.748745 c -0.0871,0 -0.138014,-0.0094 -0.164153,-0.01636 -0.01352,-0.06746 -0.01164,-0.207645 -0.01038,-0.29604 l 7.86e-4,-0.05826 c 0.0047,-0.477785 -0.03294,-0.675971 -0.06195,-0.78363 -0.203396,-0.755175 -0.721788,-1.363752 -1.179098,-1.900651 -0.141008,-0.165586 -0.274313,-0.322067 -0.396761,-0.479373 -0.567879,-0.729007 -0.868064,-1.604272 -0.868064,-2.531119 0,-2.264218 1.820763,-4.106313 4.058758,-4.106313 2.237587,0 4.058075,1.842095 4.058075,4.106313 -1.34e-4,0.927334 -0.30039,1.802875 -0.868536,2.531811 z"
                style="fill:#000000;stroke:none;stroke-width:0.06782904"/>
        <path

                d="m 29.86154,24.726732 h -2.528219 c -0.545695,0 -0.989695,0.449204 -0.989695,1.001293 v 0.767677 c 0,0.55209 0.444,1.001285 0.989695,1.001285 h 2.528219 c 0.545695,0 0.989687,-0.449195 0.989687,-1.001285 v -0.767677 c 0,-0.552089 -0.443992,-1.001293 -0.989687,-1.001293 z m -0.03412,1.734507 h -2.45996 v -0.698617 h 2.45996 z"
                style="fill:#000000;stroke:none;stroke-width:0.06782904"/>
        <path

                d="m 28.597391,11.345051 c 0.28278,0 0.511914,-0.231816 0.511914,-0.51791 V 8.70172 c 0,-0.2860939 -0.229134,-0.5179097 -0.511914,-0.5179097 -0.282772,0 -0.511906,0.2318158 -0.511906,0.5179097 v 2.125421 c 0,0.286094 0.229197,0.51791 0.511906,0.51791 z"
                style="fill:#000000;stroke:none;stroke-width:0.34999999;stroke-miterlimit:4;stroke-dasharray:none"/>
        <path

                d="m 35.332209,10.572947 c -0.195071,-0.206811 -0.519146,-0.214478 -0.723769,-0.01714 l -1.554161,1.500552 c -0.20456,0.197431 -0.212068,0.525301 -0.0169,0.732254 0.100609,0.106621 0.235344,0.160341 0.370418,0.160341 0.126952,0 0.254251,-0.04749 0.353351,-0.143216 l 1.554161,-1.500622 c 0.20456,-0.197423 0.212068,-0.525293 0.0169,-0.732183 z"
                style="fill:#000000;stroke:none;stroke-width:0.34999999;stroke-miterlimit:4;stroke-dasharray:none"/>
        <path

                d="m 36.858109,15.752091 c -2.75e-4,0 -5.5e-4,0 -7.86e-4,0 l -2.000614,0.0031 c -0.28278,4.87e-4 -0.511568,0.232712 -0.511089,0.518735 4.8e-4,0.285819 0.229543,0.517076 0.511906,0.517076 2.76e-4,0 5.51e-4,0 7.87e-4,0 l 2.000606,-0.0031 c 0.28278,-4.87e-4 0.511568,-0.232712 0.511089,-0.518735 -4.09e-4,-0.285819 -0.229543,-0.517084 -0.511906,-0.517084 z"
                style="fill:#000000;stroke:none;stroke-width:0.34999999;stroke-miterlimit:4;stroke-dasharray:none"/>
        <path

                d="m 23.897455,12.650522 c 0.195134,-0.20689 0.187626,-0.534689 -0.0169,-0.732254 l -1.554161,-1.500551 c -0.204356,-0.197361 -0.528423,-0.189828 -0.72377,0.01714 -0.195141,0.20689 -0.187634,0.534689 0.0169,0.732254 l 1.554154,1.500615 c 0.09911,0.09572 0.226265,0.143223 0.353359,0.143223 0.135003,-7e-5 0.269809,-0.05378 0.370418,-0.160412 z"
                style="fill:#000000;stroke:none;stroke-width:0.34999999;stroke-miterlimit:4;stroke-dasharray:none"/>
        <path

                d="m 21.873225,15.755338 -2.000536,-0.0031 c -2.75e-4,0 -5.5e-4,0 -7.86e-4,0 -0.282363,0 -0.511427,0.231407 -0.511906,0.517084 -4.8e-4,0.286023 0.228379,0.518248 0.511089,0.518735 l 2.000543,0.0031 c 2.75e-4,0 5.43e-4,0 7.86e-4,0 0.282372,0 0.511435,-0.231399 0.511907,-0.517076 5.5e-4,-0.286023 -0.228309,-0.518318 -0.511089,-0.518735 z"
                style="fill:#000000;stroke:none;stroke-width:0.34999999;stroke-miterlimit:4;stroke-dasharray:none"/>
        <path
                style="color:#000000;font-style:normal;font-variant:normal;font-weight:normal;font-stretch:normal;font-size:medium;line-height:normal;font-family:sans-serif;font-variant-ligatures:normal;font-variant-position:normal;font-variant-caps:normal;font-variant-numeric:normal;font-variant-alternates:normal;font-feature-settings:normal;text-indent:0;text-align:start;text-decoration:none;text-decoration-line:none;text-decoration-style:solid;text-decoration-color:#000000;letter-spacing:normal;word-spacing:normal;text-transform:none;writing-mode:lr-tb;direction:ltr;text-orientation:mixed;dominant-baseline:auto;baseline-shift:baseline;text-anchor:start;white-space:normal;shape-padding:0;clip-rule:nonzero;display:inline;overflow:visible;visibility:visible;opacity:1;isolation:auto;mix-blend-mode:normal;color-interpolation:sRGB;color-interpolation-filters:linearRGB;solid-color:#000000;solid-opacity:1;vector-effect:none;fill:#000000;fill-opacity:1;fill-rule:nonzero;stroke:none;stroke-width:1;stroke-linecap:round;stroke-linejoin:miter;stroke-miterlimit:4;stroke-dasharray:1.00000003, 2.00000006000000008;stroke-dashoffset:0;stroke-opacity:1;color-rendering:auto;image-rendering:auto;shape-rendering:auto;text-rendering:auto;enable-background:accumulate"
                d="m 5.9980469,20.673828 -0.5292969,0.07227 -0.033203,0.0039 -0.03125,0.0098 -0.044922,0.01172 0.2226562,0.796875 0.023438,0.167969 0.023437,-0.0039 v 0.002 l 0.00977,-0.002 0.4648437,-0.06445 0.3789063,0.0039 0.4160156,-0.212891 0.056641,-0.464843 -0.3515625,-0.308594 -0.1113281,-0.01367 -0.4199219,-0.0039 h -0.037109 z m -2.5957031,1.027344 -0.2421876,0.179687 -0.023437,0.01758 -0.023438,0.02148 -0.4589843,0.439453 -0.019531,0.01953 -0.017578,0.02148 -0.041016,0.04687 -0.097656,0.457031 0.3222656,0.339844 0.4609376,-0.07617 0.082031,-0.07813 0.025391,-0.0293 L 3.7792969,22.667969 4,22.501953 4.2011719,22.078125 3.9648438,21.675781 3.4980469,21.644531 Z m 4.3710937,0.691406 0.2714844,0.375 0.2285156,0.416016 0.3886719,0.257812 0.4335937,-0.177734 0.095703,-0.457031 L 9.1503906,22.703125 8.90625,22.257812 8.890625,22.230469 8.8730469,22.205078 8.5839844,21.806641 Z m -6.5507813,2.123047 -0.013672,0.02734 -0.011719,0.0293 -0.22656248,0.578125 0.93164068,0.363281 0.2148437,-0.550781 0.1660156,-0.306641 -0.8808593,-0.474609 z m 7.5566407,0.412109 0.021484,0.146485 0.048828,0.804687 0.9980468,-0.06055 -0.050781,-0.839843 -0.00195,-0.02344 -0.00391,-0.02344 -0.023437,-0.15625 z m 0.1660156,2.925782 0.015625,1 1,-0.01563 -0.015625,-1 z m -0.00977,3.984375 1,0.01563 0.015625,-1 -0.9980469,-0.01563 z"
        />
        <path
                style="color:#000000;font-style:normal;font-variant:normal;font-weight:normal;font-stretch:normal;font-size:medium;line-height:normal;font-family:sans-serif;font-variant-ligatures:normal;font-variant-position:normal;font-variant-caps:normal;font-variant-numeric:normal;font-variant-alternates:normal;font-feature-settings:normal;text-indent:0;text-align:start;text-decoration:none;text-decoration-line:none;text-decoration-style:solid;text-decoration-color:#000000;letter-spacing:normal;word-spacing:normal;text-transform:none;writing-mode:lr-tb;direction:ltr;text-orientation:mixed;dominant-baseline:auto;baseline-shift:baseline;text-anchor:start;white-space:normal;shape-padding:0;clip-rule:nonzero;display:inline;overflow:visible;visibility:visible;opacity:1;isolation:auto;mix-blend-mode:normal;color-interpolation:sRGB;color-interpolation-filters:linearRGB;solid-color:#000000;solid-opacity:1;vector-effect:none;fill:#000000;fill-opacity:1;fill-rule:nonzero;stroke:none;stroke-width:1;stroke-linecap:round;stroke-linejoin:miter;stroke-miterlimit:4;stroke-dasharray:1.00000003, 2.00000006000000008;stroke-dashoffset:0;stroke-opacity:1;color-rendering:auto;image-rendering:auto;shape-rendering:auto;text-rendering:auto;enable-background:accumulate"
                d="m 4.7929688,24.183594 -0.044922,0.0059 -0.044922,0.01367 -0.3261719,0.105469 -0.048828,0.01563 -0.044922,0.02539 -0.013672,0.0078 -0.2519531,0.394531 0.1835938,0.427735 0.4589843,0.0918 0.037109,-0.01563 0.2675782,-0.08594 0.5898437,-0.07422 -0.1230469,-0.992187 z m 2.0136718,0.732422 -0.078125,0.458984 0.044922,0.103516 0.082031,0.134765 0.296875,0.708985 0.3613281,0.296875 0.4492187,-0.13086 0.1425782,-0.445312 -0.03125,-0.107422 -0.3125,-0.744141 L 7.7480469,25.15625 7.7304688,25.125 7.6308594,24.960938 7.2304688,24.720703 Z m -3.96875,1.570312 -0.00781,0.02539 -0.00586,0.02734 -0.1582032,0.697266 0.1230469,0.451172 0.4414063,0.152344 0.375,-0.277344 0.037109,-0.105469 0.1484375,-0.660156 0.085937,-0.253906 -0.9453125,-0.326172 z m 4.9238282,1.69336 0.2988281,0.953124 0.9550781,-0.298828 -0.3007812,-0.955078 z m 0.8984374,2.861328 0.2988282,0.953125 0.9550781,-0.298829 -0.3007813,-0.953124 z"
        />
        <path
                style="color:#000000;font-style:normal;font-variant:normal;font-weight:normal;font-stretch:normal;font-size:medium;line-height:normal;font-family:sans-serif;font-variant-ligatures:normal;font-variant-position:normal;font-variant-caps:normal;font-variant-numeric:normal;font-variant-alternates:normal;font-feature-settings:normal;text-indent:0;text-align:start;text-decoration:none;text-decoration-line:none;text-decoration-style:solid;text-decoration-color:#000000;letter-spacing:normal;word-spacing:normal;text-transform:none;writing-mode:lr-tb;direction:ltr;text-orientation:mixed;dominant-baseline:auto;baseline-shift:baseline;text-anchor:start;white-space:normal;shape-padding:0;clip-rule:nonzero;display:inline;overflow:visible;visibility:visible;opacity:1;isolation:auto;mix-blend-mode:normal;color-interpolation:sRGB;color-interpolation-filters:linearRGB;solid-color:#000000;solid-opacity:1;vector-effect:none;fill:#000000;fill-opacity:1;fill-rule:nonzero;stroke:none;stroke-width:1;stroke-linecap:round;stroke-linejoin:miter;stroke-miterlimit:4;stroke-dasharray:1.00000003, 2.00000006000000008;stroke-dashoffset:0;stroke-opacity:1;color-rendering:auto;image-rendering:auto;shape-rendering:auto;text-rendering:auto;enable-background:accumulate"
                d="m 13.230469,20.671875 -0.410157,0.222656 -0.04883,0.464844 0.357422,0.302734 0.113282,0.0098 0.378906,-0.0039 0.466797,0.06445 0.0078,0.002 h 0.002 l 0.01953,0.002 v -0.0078 l 0.433593,-0.09375 0.175781,-0.431641 -0.259765,-0.390625 -0.103516,-0.04102 -0.04297,-0.01172 -0.0332,-0.0098 -0.0332,-0.0039 -0.527344,-0.07227 -0.03711,-0.0059 h -0.03711 z m -2.015625,1.050781 -0.07422,0.08398 -0.289063,0.398437 -0.01758,0.02539 -0.01563,0.02734 -0.24414,0.445313 -0.0078,0.466797 0.382813,0.269531 0.4375,-0.164062 0.06445,-0.0918 0.228516,-0.416016 0.271484,-0.375 0.06445,-0.46289 -0.345703,-0.314454 z m 4.326172,0.246094 0.101562,0.455078 0.08008,0.07813 0.214844,0.160156 0.421875,0.402344 0.02148,0.02539 0.431641,0.177734 0.390625,-0.259766 0.0059,-0.466796 -0.0625,-0.09375 -0.03906,-0.04687 -0.01953,-0.02148 -0.01953,-0.01953 -0.458984,-0.439453 -0.02148,-0.02148 -0.02344,-0.01758 -0.242187,-0.179687 -0.460938,-0.07227 z m 1.90039,2.6875 0.164063,0.306641 0.214843,0.550781 0.931641,-0.363281 -0.224609,-0.578125 -0.01172,-0.0293 -0.01367,-0.02734 -0.179687,-0.333984 z m -7.4550779,0.01172 -0.029297,0.107422 -0.025391,0.15625 -0.00391,0.02344 v 0.02344 l -0.050781,0.839843 0.9980469,0.06055 0.04883,-0.822265 0.02148,-0.128907 -0.154296,-0.441406 -0.449219,-0.123047 z m -0.2246093,4.169922 1.0000002,0.01563 0.01563,-1 -1.0000002,-0.01563 z m 0.021484,1.904297 -0.011719,0.111328 0.015625,1 0.2246096,0.408203 0.464843,0.04687 0.300782,-0.359375 0.0098,-0.111328 -0.01563,-1 -0.224609,-0.410157 -0.464844,-0.04492 z"
        />
        <path
                style="color:#000000;font-style:normal;font-variant:normal;font-weight:normal;font-stretch:normal;font-size:medium;line-height:normal;font-family:sans-serif;font-variant-ligatures:normal;font-variant-position:normal;font-variant-caps:normal;font-variant-numeric:normal;font-variant-alternates:normal;font-feature-settings:normal;text-indent:0;text-align:start;text-decoration:none;text-decoration-line:none;text-decoration-style:solid;text-decoration-color:#000000;letter-spacing:normal;word-spacing:normal;text-transform:none;writing-mode:lr-tb;direction:ltr;text-orientation:mixed;dominant-baseline:auto;baseline-shift:baseline;text-anchor:start;white-space:normal;shape-padding:0;clip-rule:nonzero;display:inline;overflow:visible;visibility:visible;opacity:1;isolation:auto;mix-blend-mode:normal;color-interpolation:sRGB;color-interpolation-filters:linearRGB;solid-color:#000000;solid-opacity:1;vector-effect:none;fill:#000000;fill-opacity:1;fill-rule:nonzero;stroke:none;stroke-width:1;stroke-linecap:round;stroke-linejoin:miter;stroke-miterlimit:4;stroke-dasharray:1.00000003, 2.00000006000000008;stroke-dashoffset:0;stroke-opacity:1;color-rendering:auto;image-rendering:auto;shape-rendering:auto;text-rendering:auto;enable-background:accumulate"
                d="m 14.167969,25.095703 0.58789,0.07422 0.285157,0.08984 0.0098,-0.03125 0.376953,0.01172 0.275391,-0.376953 -0.158203,-0.439453 -0.08984,-0.06641 -0.01367,-0.0078 -0.04492,-0.02539 -0.05078,-0.01563 -0.324219,-0.105469 -0.04492,-0.01367 -0.04687,-0.0059 -0.636719,-0.08008 z m -2.007813,-0.222656 -0.06641,0.08789 -0.09961,0.164062 -0.01953,0.03125 -0.01367,0.03516 -0.3125,0.744141 0.921874,0.386719 0.292969,-0.699219 0.08594,-0.144531 0.02734,-0.466797 -0.371093,-0.285157 z m 3.835938,1.125 -0.173828,0.435547 0.02344,0.109375 0.08399,0.240234 0.152343,0.673828 0.304688,0.353516 0.46289,-0.05078 0.220703,-0.41211 -0.01367,-0.111328 -0.15625,-0.697266 -0.0059,-0.02734 -0.0098,-0.02539 -0.0918,-0.269531 -0.341797,-0.320313 z m -5.28711,2.835937 0.955078,0.298828 0.298829,-0.953124 -0.955079,-0.300782 z m -0.898437,2.861328 0.953125,0.298829 0.300781,-0.953125 -0.955078,-0.298828 z"
        />
        <path
                style="fill:#000000;fill-opacity:1;stroke:none;stroke-width:0;stroke-linecap:round;stroke-miterlimit:4;stroke-dasharray:none;stroke-dashoffset:0"
                d="m 5.5029039,31.635832 h 8.6907671 c 1.227604,0 2.215891,0.432686 2.215891,0.970148 v 0.374947 c 0,0.537463 -0.988287,0.970149 -2.215891,0.970149 H 5.5029039 c -1.2276021,0 -2.215891,-0.432686 -2.215891,-0.970149 V 32.60598 c 0,-0.537462 0.9882889,-0.970148 2.215891,-0.970148 z"
        />
    </g>
</svg>
