<?xml version="1.0" encoding="UTF-8" standalone="no"?>
<svg xmlns="http://www.w3.org/2000/svg" viewBox="0 0 38 38" version="1.1" width="38" height="38">
    <g>
        <path
                style="fill:#000000;stroke-width:0.09576213"
                d="m 13.142472,12.58029 c -0.773132,-0.769467 -1.864618,-1.267358 -3.047054,-1.267358 -1.1824365,0 -2.2739134,0.475257 -3.0470549,1.267358 -0.7731324,0.769466 -1.2733867,1.855767 -1.2733867,3.032597 0,1.176838 0.5002543,2.263148 1.2733867,3.032605 0.7731415,0.769467 1.8646184,1.267367 3.0470549,1.267367 1.182436,0 2.273922,-0.475257 3.047054,-1.267367 0.773133,-0.769457 1.273396,-1.855767 1.273396,-3.032605 0,-1.17683 -0.477521,-2.263131 -1.273396,-3.032597 z m -0.818607,5.250477 c -0.56849,0.565784 -1.364355,0.905263 -2.228447,0.905263 -0.8640831,0 -1.6599577,-0.339479 -2.2284382,-0.905263 -0.5684805,-0.565785 -0.9095671,-1.357886 -0.9095671,-2.21788 0,-0.859986 0.3410866,-1.652086 0.9095671,-2.217871 0.5684805,-0.565776 1.3643551,-0.905254 2.2284382,-0.905254 0.864092,0 1.659957,0.339478 2.228447,0.905254 0.56848,0.565785 0.909567,1.357885 0.909567,2.217871 0,0.859994 -0.341087,1.652095 -0.909567,2.21788 z"
        />
        <path
                style="fill:#000000;stroke-width:0.09576213"
                d="m 18.099612,15.024476 h -1.750908 c -0.318354,0 -0.591223,0.271576 -0.591223,0.588411 0,0.316843 0.272869,0.588419 0.591223,0.588419 h 1.750908 c 0.318353,0 0.591222,-0.271576 0.591222,-0.588419 0,-0.316835 -0.272869,-0.588411 -0.591222,-0.588411 z"
        />
        <path
                style="fill:#000000;stroke-width:0.09576213"
                d="m 10.095418,21.24811 c -0.3183446,0 -0.5912139,0.271566 -0.5912139,0.58841 v 1.742614 c 0,0.316844 0.2728693,0.588411 0.5912139,0.588411 0.318353,0 0.591222,-0.271567 0.591222,-0.588411 V 21.83652 c 0,-0.316844 -0.272869,-0.58841 -0.591222,-0.58841 z"
        />
        <path
                style="fill:#000000;stroke-width:0.09576213"
                d="m 16.166785,20.840747 -1.250654,-1.244732 c -0.204652,-0.226316 -0.591222,-0.226316 -0.818616,0 -0.227394,0.226316 -0.227394,0.58841 0,0.814726 l 1.250662,1.244723 c 0.227385,0.226316 0.591223,0.226316 0.818608,0 0.227394,-0.226307 0.227394,-0.58841 0,-0.814717 z"
        />
        <path
                style="fill:#000000;stroke-width:0.09576213"
                d="m 10.095418,7.0582376 c -0.3183446,0 -0.5912139,0.2715753 -0.5912139,0.5884101 v 1.7426142 c 0,0.3168439 0.2728693,0.5884192 0.5912139,0.5884192 0.318353,0 0.591222,-0.2715753 0.591222,-0.5884192 V 7.6466477 c 0,-0.3168348 -0.272869,-0.5884101 -0.591222,-0.5884101 z"
        />
        <path
                style="fill:#000000;stroke-width:0.09576213"
                d="m 16.189527,9.5703181 c -0.227394,-0.2263157 -0.591223,-0.2263157 -0.818617,0 l -1.250653,1.2447229 c -0.227385,0.226316 -0.227385,0.58841 0,0.814726 0.204652,0.226316 0.591222,0.226316 0.818616,0 l 1.250654,-1.244723 c 0.227394,-0.226316 0.227394,-0.5884101 0,-0.8147259 z"
        />
        <path
                style="fill:#000000;stroke-width:0.09576213"
                d="M 3.8421408,15.024476 H 2.0912239 c -0.3183444,0 -0.5912226,0.271576 -0.5912226,0.588411 0,0.316843 0.2501361,0.588419 0.5912226,0.588419 h 1.7509169 c 0.3183444,0 0.5912226,-0.271576 0.5912226,-0.588419 0,-0.316835 -0.2728782,-0.588411 -0.5912226,-0.588411 z"
        />
        <path
                style="fill:#000000;stroke-width:0.09576213"
                d="m 6.0705877,19.596015 c -0.2046609,-0.226316 -0.5912226,-0.226316 -0.8186166,0 l -1.2506536,1.244732 c -0.227394,0.226307 -0.227394,0.58841 0,0.814717 0.227385,0.226316 0.5912226,0.226316 0.8186076,0 l 1.2506626,-1.244723 c 0.227394,-0.226316 0.227394,-0.58841 0,-0.814726 z"
        />
        <path
                style="fill:#000000;stroke-width:0.09576213"
                d="M 6.0705877,10.815041 4.8199251,9.5703181 c -0.227385,-0.2263157 -0.5912226,-0.2263157 -0.8186076,0 -0.227394,0.2263158 -0.227394,0.5884099 0,0.8147259 l 1.2506536,1.244723 c 0.227394,0.226316 0.5912226,0.226316 0.8186166,0 0.227394,-0.226316 0.227394,-0.58841 0,-0.814726 z"
        />
        <path
                d="M 35.38877,9.7209953 C 34.706435,9.0418959 33.751168,8.6150324 32.698429,8.6150324 c -0.09748,0 -0.214457,0 -0.31193,0.019429 C 32.016086,7.8583515 31.470222,7.2180562 30.787887,6.7523885 30.00808,6.2091126 29.052814,5.8986615 28.058558,5.8986615 c -1.189219,0 -2.280947,0.4268725 -3.119246,1.144776 -0.740818,0.6402953 -1.286691,1.4940134 -1.540129,2.5029571 -0.760312,0.097019 -1.442647,0.4462656 -1.949522,0.9507374 -0.604357,0.601491 -0.974761,1.435807 -0.974761,2.34774 0,0.911934 0.370404,1.746259 0.974761,2.347741 0.604357,0.620893 1.442647,0.98955 2.378419,0.98955 h 8.870349 c 1.052739,0 1.988503,-0.426872 2.690341,-1.105963 0.682334,-0.679099 1.111231,-1.629836 1.111231,-2.677593 0,-1.047748 -0.428897,-1.979083 -1.111231,-2.6775848 z m -0.779817,4.6566677 c -0.506875,0.504481 -1.208704,0.814923 -1.969016,0.814923 H 23.82808 c -0.643345,0 -1.228198,-0.252236 -1.657095,-0.679099 -0.428897,-0.426855 -0.682335,-1.008944 -0.682335,-1.64923 0,-0.659698 0.253438,-1.241787 0.682335,-1.649248 0.428897,-0.426855 1.01375,-0.679091 1.657095,-0.679091 0.07796,0 0.17546,-0.01943 0.233943,-0.0582 0.116976,-0.07763 0.194954,-0.19403 0.214449,-0.329853 0.13647,-0.9119335 0.604356,-1.7268564 1.267187,-2.2895344 0.66284,-0.5626781 1.540129,-0.9119333 2.475901,-0.9119333 0.799302,0 1.540129,0.2522359 2.163971,0.6790995 0.467886,0.3298531 0.877288,0.7567077 1.150229,1.2805905 -0.07796,0.038768 -0.155965,0.058197 -0.233952,0.09701 -0.487371,0.2134318 -0.916277,0.543276 -1.286682,0.9313353 -0.17545,0.2134324 -0.155965,0.5238744 0.03893,0.6985024 0.214449,0.174627 0.52637,0.155225 0.70182,-0.03877 0.272941,-0.29104 0.584862,-0.523874 0.935781,-0.6985017 0.35091,-0.1552255 0.740818,-0.2522359 1.150212,-0.2522359 0.779816,0 1.462151,0.3104421 1.969026,0.8149146 0.506875,0.504481 0.818805,1.202982 0.818805,1.95969 0,0.756707 -0.31193,1.455209 -0.818805,1.959681 z"

                style="fill:#000000;stroke-width:0.08210082"/>
        <path
                d="m 29.150286,17.016453 c -0.07796,-0.116422 -0.155965,-0.213432 -0.233943,-0.368658 -0.03894,-0.0582 -0.09748,-0.116412 -0.155965,-0.155216 -0.233934,-0.155226 -0.545864,-0.07763 -0.70182,0.155216 -0.09748,0.135824 -0.155965,0.252236 -0.253438,0.368658 -0.467895,0.679099 -1.150229,1.688043 -1.150229,2.347731 0,0.504481 0.194954,0.950746 0.526369,1.280591 0.331425,0.329844 0.779816,0.523873 1.286692,0.523873 0.526369,0.01943 0.97477,-0.194029 1.306185,-0.523873 0.331416,-0.329845 0.52637,-0.77611 0.52637,-1.280591 0,-0.659688 -0.682335,-1.668632 -1.150221,-2.347731 z m -0.07796,2.92982 c -0.155956,0.155226 -0.350901,0.232843 -0.584853,0.232843 -0.233943,0 -0.428888,-0.09702 -0.584853,-0.232843 -0.155965,-0.155217 -0.233943,-0.349246 -0.233943,-0.582089 0,-0.310442 0.448391,-1.008935 0.818796,-1.55222 0.370413,0.543285 0.818805,1.241778 0.818805,1.55222 0,0.232843 -0.09748,0.426872 -0.233952,0.582089 z"

                style="fill:#000000;stroke-width:0.08210082"/>
        <path
                d="m 33.302777,17.016453 c -0.07796,-0.116422 -0.155965,-0.213432 -0.233943,-0.368658 -0.03894,-0.0582 -0.09747,-0.116412 -0.155965,-0.155216 -0.233943,-0.155226 -0.545864,-0.07763 -0.701829,0.155216 -0.09747,0.155226 -0.155956,0.252236 -0.253438,0.368658 -0.467886,0.679099 -1.15022,1.688043 -1.15022,2.347731 0,0.504481 0.194954,0.950746 0.526378,1.280591 0.331416,0.329844 0.779807,0.523873 1.286682,0.523873 0.506875,0.01943 0.955267,-0.194029 1.286682,-0.523873 0.331425,-0.329845 0.545873,-0.77611 0.545873,-1.280591 0,-0.659688 -0.682334,-1.668632 -1.15022,-2.347731 z m -0.09748,2.92982 c -0.155965,0.155226 -0.35091,0.232843 -0.584853,0.232843 -0.233943,0 -0.428897,-0.09702 -0.584853,-0.232843 -0.155974,-0.155217 -0.233952,-0.349246 -0.233952,-0.582089 0,-0.310442 0.448401,-1.008935 0.818805,-1.55222 0.370405,0.543285 0.818796,1.241778 0.818796,1.55222 0,0.232843 -0.09747,0.426872 -0.233943,0.582089 z"

                style="fill:#000000;stroke-width:0.08210082"/>
        <path
                d="m 24.997804,17.016453 c -0.07796,-0.116422 -0.155965,-0.213432 -0.233952,-0.368658 -0.01956,-0.0582 -0.07796,-0.09701 -0.13647,-0.155216 -0.233934,-0.155226 -0.545855,-0.07763 -0.70182,0.155216 -0.09748,0.155226 -0.155965,0.252236 -0.253438,0.368658 -0.467895,0.679099 -1.15022,1.688043 -1.15022,2.347731 0,0.504481 0.194954,0.950746 0.526369,1.280591 0.331416,0.329844 0.779807,0.523873 1.286691,0.523873 0.487372,0 0.935763,-0.194029 1.247693,-0.504471 0.01956,0 0.01956,-0.01943 0.03893,-0.01943 0.331416,-0.329853 0.52637,-0.776119 0.52637,-1.280591 0,-0.659697 -0.682335,-1.668632 -1.150221,-2.34774 z m -0.05849,2.92982 -0.01956,0.01943 c -0.13647,0.135823 -0.331415,0.213441 -0.565367,0.213441 -0.233943,0 -0.428888,-0.09702 -0.584853,-0.232834 -0.155956,-0.155226 -0.233943,-0.349255 -0.233943,-0.582089 0,-0.310451 0.448391,-1.008944 0.818796,-1.552229 0.370413,0.562687 0.818805,1.241778 0.818805,1.552229 0,0.232834 -0.09748,0.426863 -0.233952,0.582089 z"

                style="fill:#000000;stroke-width:0.08210082"/>
        <path
                style="color:#000000;font-style:normal;font-variant:normal;font-weight:normal;font-stretch:normal;font-size:medium;line-height:normal;font-family:sans-serif;font-variant-ligatures:normal;font-variant-position:normal;font-variant-caps:normal;font-variant-numeric:normal;font-variant-alternates:normal;font-feature-settings:normal;text-indent:0;text-align:start;text-decoration:none;text-decoration-line:none;text-decoration-style:solid;text-decoration-color:#000000;letter-spacing:normal;word-spacing:normal;text-transform:none;writing-mode:lr-tb;direction:ltr;text-orientation:mixed;dominant-baseline:auto;baseline-shift:baseline;text-anchor:start;white-space:normal;shape-padding:0;clip-rule:nonzero;display:inline;overflow:visible;visibility:visible;opacity:1;isolation:auto;mix-blend-mode:normal;color-interpolation:sRGB;color-interpolation-filters:linearRGB;solid-color:#000000;solid-opacity:1;vector-effect:none;fill:#000000;fill-opacity:1;fill-rule:nonzero;stroke:none;stroke-width:0.69999999;stroke-linecap:butt;stroke-linejoin:miter;stroke-miterlimit:4;stroke-dasharray:none;stroke-dashoffset:0;stroke-opacity:1;color-rendering:auto;image-rendering:auto;shape-rendering:auto;text-rendering:auto;enable-background:accumulate"
                d="m 20.345703,19.023438 c -3.622897,0 -6.568359,2.93066 -6.568359,6.539062 0,3.608411 2.945462,6.539062 6.568359,6.539062 3.622897,0 6.570313,-2.930652 6.570313,-6.539062 -0.0047,-3.606254 -2.94957,-6.534445 -6.570313,-6.539062 z m -0.617187,1.332031 v 0.65039 c 0,0.336715 0.281565,0.615235 0.617187,0.615235 0.335625,0 0.617188,-0.278506 0.617188,-0.615235 v -0.65039 c 2.436958,0.291548 4.324341,2.16841 4.617187,4.591797 h -0.65625 c -0.335625,0 -0.617187,0.278522 -0.617187,0.615234 0,0.336712 0.281562,0.615234 0.617187,0.615234 h 0.0039 0.65625 c -0.293657,2.423588 -2.183538,4.301449 -4.621093,4.591797 v -0.65039 c 0,-0.336727 -0.281577,-0.615235 -0.617188,-0.615235 -0.335608,0 -0.617187,0.278523 -0.617187,0.615235 v 0.65039 c -2.436437,-0.291492 -4.323711,-2.169144 -4.617188,-4.591797 h 0.65625 c 0.335625,0 0.617188,-0.278508 0.617188,-0.615234 0,-0.336726 -0.281563,-0.615234 -0.617188,-0.615234 h -0.65625 c 0.29284,-2.423386 2.180228,-4.300249 4.617188,-4.591797 z"
        />
        <path
                style="color:#000000;font-style:normal;font-variant:normal;font-weight:normal;font-stretch:normal;font-size:medium;line-height:normal;font-family:sans-serif;font-variant-ligatures:normal;font-variant-position:normal;font-variant-caps:normal;font-variant-numeric:normal;font-variant-alternates:normal;font-feature-settings:normal;text-indent:0;text-align:start;text-decoration:none;text-decoration-line:none;text-decoration-style:solid;text-decoration-color:#000000;letter-spacing:normal;word-spacing:normal;text-transform:none;writing-mode:lr-tb;direction:ltr;text-orientation:mixed;dominant-baseline:auto;baseline-shift:baseline;text-anchor:start;white-space:normal;shape-padding:0;clip-rule:nonzero;display:inline;overflow:visible;visibility:visible;opacity:1;isolation:auto;mix-blend-mode:normal;color-interpolation:sRGB;color-interpolation-filters:linearRGB;solid-color:#000000;solid-opacity:1;vector-effect:none;fill:#000000;fill-opacity:1;fill-rule:nonzero;stroke:none;stroke-width:0.99999982;stroke-linecap:butt;stroke-linejoin:miter;stroke-miterlimit:4;stroke-dasharray:none;stroke-dashoffset:0;stroke-opacity:1;color-rendering:auto;image-rendering:auto;shape-rendering:auto;text-rendering:auto;enable-background:accumulate"
                d="m 20.345703,22.007812 c -0.416313,10e-7 -0.765625,0.347454 -0.765625,0.765626 v 2.789062 0.002 c 8.79e-4,0.201089 0.08122,0.395072 0.222656,0.537109 l 2.621094,2.652344 c 0.292819,0.295877 0.781301,0.303335 1.080078,0.01367 l 0.002,-0.002 c 0.298294,-0.290677 0.303753,-0.78391 0.01367,-1.082031 l -0.0039,-0.0039 -2.402344,-2.431641 v -2.474609 c 0,-0.418193 -0.351256,-0.765625 -0.767578,-0.765626 z"
        />
    </g>
</svg>
