<?xml version="1.0" encoding="UTF-8" standalone="no"?>
<svg xmlns="http://www.w3.org/2000/svg" height="38" width="38" version="1.1" viewBox="0 0 38 38">
    <g transform="matrix(-0.00285714,0,0,-0.00285714,33.2857,19.342996)">
        <path
                d="m 2544.8,5015.1 c -385.5,-65.2 -717.3,-351 -868.8,-748 l -42.2,-111.2 -5.8,-3245.1 -3.8,-3247 H 1777.6 1931 V 876.3 c 0,3191.4 0,3212.5 40.3,3331.4 74.8,232.1 241.7,398.9 473.7,473.7 118.9,40.3 143.8,40.3 2882.6,40.3 H 8089.4 L 8005,4612.4 c -94,-122.7 -132.3,-189.9 -193.7,-349.1 L 7771,4155.9 7761.4,118.7 c -9.6,-3814.7 -11.5,-4041 -44.1,-4123.5 -47.9,-122.7 -151.5,-257 -258.9,-335.6 -255.1,-189.9 -673.2,-189.9 -928.3,0 -404.7,297.3 -404.7,949.4 0,1246.6 107.4,80.5 297.3,143.8 429.6,143.8 74.8,0 103.6,9.6 140,47.9 63.3,61.4 63.3,149.6 0,212.9 l -46,46 -3045.6,-3.8 -3045.6,-5.7 -126.5,-49.8 c -352.9,-136.2 -581.1,-375.9 -700,-726.9 -48,-143.9 -48,-431.6 0,-575.4 120.8,-360.5 377.8,-617.6 740.3,-740.3 101.6,-34.5 226.3,-36.4 3202.9,-36.4 h 3097.4 l 130.4,46 c 326.1,111.2 579.2,362.5 707.7,703.8 l 44.1,113.2 9.6,4037.2 c 9.6,3814.7 11.5,4041 44.1,4123.5 115.1,291.5 397,479.5 723,479.5 462.2,0 792.1,-352.9 761.4,-813.2 C 9583.5,3716.7 9547,3609.3 9453.1,3484.6 9307.3,3292.8 9083,3187.3 8812.5,3187.3 H 8682.1 V 3032 2874.7 l 178.4,11.5 c 360.6,23 657.9,189.9 853.5,481.4 136.2,203.3 186,358.6 186,586.9 0,287.7 -101.6,529.3 -308.8,738.4 -130.4,132.3 -237.8,203.3 -427.7,276.2 l -126.6,49.9 -3222.1,1.9 c -1772.1,1.9 -3243.1,-0.1 -3270,-5.8 z m 3619.1,-8076.3 c -166.9,-214.8 -234,-398.9 -234,-655.9 0,-257 67.1,-441.1 234,-657.8 l 84.4,-109.3 H 3641.9 c -2556.6,0 -2610.3,0 -2729.2,38.4 -314.5,99.7 -515.9,383.6 -515.9,728.8 0,341.4 201.4,627.1 508.2,726.9 111.2,36.4 193.7,38.4 2729.2,38.4 l 2614.1,1.9 z"

                style="fill:#000000;stroke-width:11433.32226562"/>
        <path
                d="M 4079.2,3647.6 V 3494.2 H 4232.6 4386 V 3647.6 3801 H 4232.6 4079.2 Z"

                style="fill:#000000;stroke-width:11433.32226562"/>
        <path
                d="m 4692.9,3647.6 v -153.4 h 153.4 153.4 v 153.4 153.4 h -153.4 -153.4 z"

                style="fill:#000000;stroke-width:11433.32226562"/>
        <path
                d="M 5306.6,3647.6 V 3494.2 H 5460 5613.4 V 3647.6 3801 H 5460 5306.6 Z"

                style="fill:#000000;stroke-width:11433.32226562"/>
        <path
                d="m 2544.8,2113.3 v -153.4 h 2301.5 2301.5 v 153.4 153.4 H 4846.3 2544.8 Z"

                style="fill:#000000;stroke-width:11433.32226562"/>
        <path
                d="M 2544.8,1499.6 V 1346.2 H 4846.3 7147.8 V 1499.6 1653 H 4846.3 2544.8 Z"

                style="fill:#000000;stroke-width:11433.32226562"/>
        <path
                d="M 2544.8,885.8 V 732.4 h 2301.5 2301.5 v 153.4 153.4 H 4846.3 2544.8 Z"

                style="fill:#000000;stroke-width:11433.32226562"/>
        <path
                d="M 2544.8,272.1 V 118.7 H 4846.3 7147.8 V 272.1 425.5 H 4846.3 2544.8 Z"

                style="fill:#000000;stroke-width:11433.32226562"/>
        <path
                d="M 2544.8,-341.6 V -495 h 2301.5 2301.5 v 153.4 153.4 H 4846.3 2544.8 Z"

                style="fill:#000000;stroke-width:11433.32226562"/>
        <path
                d="m 5613.5,-1262.2 v -153.4 h 767.2 767.2 v 153.4 153.4 h -767.2 -767.2 z"

                style="fill:#000000;stroke-width:11433.32226562"/>
    </g>
</svg>
